999
"DXF R12 Output" (www.mydxf.blogspot.com)
 0 
SECTION
 2 
HEADER
 9 
$ACADVER
 1 
AC1009
 9 
$EXTMIN
 10 
 0 
 20 
 0 
 9 
$EXTMAX
 10 
 8.5 
 20 
 11 
 0 
ENDSEC
 0 
SECTION
 2 
ENTITIES
0
POLYLINE
8
Layer 1
62
7
70
0
10
0.000000
20
0.000000
66
1
0
VERTEX
8
Layer 1
10
110.189650
20
120.241391
70
0
0
VERTEX
8
Layer 1
10
107.918108
20
120.161491
70
0
0
VERTEX
8
Layer 1
10
105.682223
20
119.924927
70
0
0
VERTEX
8
Layer 1
10
103.489507
20
119.536402
70
0
0
VERTEX
8
Layer 1
10
101.347471
20
119.000618
70
0
0
VERTEX
8
Layer 1
10
99.263625
20
118.322279
70
0
0
VERTEX
8
Layer 1
10
97.245479
20
117.506087
70
0
0
VERTEX
8
Layer 1
10
95.300545
20
116.556744
70
0
0
VERTEX
8
Layer 1
10
93.436333
20
115.478955
70
0
0
VERTEX
8
Layer 1
10
91.660353
20
114.277421
70
0
0
VERTEX
8
Layer 1
10
89.980117
20
112.956845
70
0
0
VERTEX
8
Layer 1
10
88.403134
20
111.521931
70
0
0
VERTEX
8
Layer 1
10
86.936916
20
109.977380
70
0
0
VERTEX
8
Layer 1
10
85.588973
20
108.327897
70
0
0
VERTEX
8
Layer 1
10
84.366816
20
106.578183
70
0
0
VERTEX
8
Layer 1
10
83.277956
20
104.732942
70
0
0
VERTEX
8
Layer 1
10
82.329902
20
102.796876
70
0
0
VERTEX
8
Layer 1
10
81.539392
20
100.799658
70
0
0
VERTEX
8
Layer 1
10
80.916981
20
98.773358
70
0
0
VERTEX
8
Layer 1
10
80.460906
20
96.726280
70
0
0
VERTEX
8
Layer 1
10
80.169406
20
94.666726
70
0
0
VERTEX
8
Layer 1
10
80.040717
20
92.602997
70
0
0
VERTEX
8
Layer 1
10
80.073078
20
90.543396
70
0
0
VERTEX
8
Layer 1
10
80.264726
20
88.496225
70
0
0
VERTEX
8
Layer 1
10
80.613899
20
86.469787
70
0
0
VERTEX
8
Layer 1
10
81.118835
20
84.472383
70
0
0
VERTEX
8
Layer 1
10
81.777772
20
82.512315
70
0
0
VERTEX
8
Layer 1
10
82.588948
20
80.597887
70
0
0
VERTEX
8
Layer 1
10
83.550599
20
78.737400
70
0
0
VERTEX
8
Layer 1
10
84.660965
20
76.939156
70
0
0
VERTEX
8
Layer 1
10
85.918282
20
75.211458
70
0
0
VERTEX
8
Layer 1
10
87.320788
20
73.562608
70
0
0
VERTEX
8
Layer 1
10
88.866722
20
72.000907
70
0
0
VERTEX
8
Layer 1
10
90.533234
20
70.552202
70
0
0
VERTEX
8
Layer 1
10
92.292746
20
69.237904
70
0
0
VERTEX
8
Layer 1
10
94.136397
20
68.059663
70
0
0
VERTEX
8
Layer 1
10
96.055328
20
67.019132
70
0
0
VERTEX
8
Layer 1
10
98.040680
20
66.117962
70
0
0
VERTEX
8
Layer 1
10
100.083594
20
65.357804
70
0
0
VERTEX
8
Layer 1
10
104.306667
20
64.267130
70
0
0
VERTEX
8
Layer 1
10
108.653674
20
63.760323
70
0
0
VERTEX
8
Layer 1
10
110.851503
20
63.729997
70
0
0
VERTEX
8
Layer 1
10
113.053737
20
63.850592
70
0
0
VERTEX
8
Layer 1
10
115.251517
20
64.123760
70
0
0
VERTEX
8
Layer 1
10
117.435983
20
64.551151
70
0
0
VERTEX
8
Layer 1
10
119.598275
20
65.134416
70
0
0
VERTEX
8
Layer 1
10
121.729535
20
65.875208
70
0
0
VERTEX
8
Layer 1
10
123.795539
20
66.763636
70
0
0
VERTEX
8
Layer 1
10
125.764622
20
67.784015
70
0
0
VERTEX
8
Layer 1
10
127.631766
20
68.929307
70
0
0
VERTEX
8
Layer 1
10
129.391953
20
70.192473
70
0
0
VERTEX
8
Layer 1
10
131.040165
20
71.566476
70
0
0
VERTEX
8
Layer 1
10
132.571382
20
73.044277
70
0
0
VERTEX
8
Layer 1
10
133.980587
20
74.618839
70
0
0
VERTEX
8
Layer 1
10
135.262761
20
76.283121
70
0
0
VERTEX
8
Layer 1
10
136.412885
20
78.030087
70
0
0
VERTEX
8
Layer 1
10
137.425942
20
79.852699
70
0
0
VERTEX
8
Layer 1
10
138.296912
20
81.743917
70
0
0
VERTEX
8
Layer 1
10
139.020778
20
83.696703
70
0
0
VERTEX
8
Layer 1
10
139.592520
20
85.704020
70
0
0
VERTEX
8
Layer 1
10
140.007121
20
87.758829
70
0
0
VERTEX
8
Layer 1
10
140.259562
20
89.854092
70
0
0
VERTEX
8
Layer 1
10
140.344824
20
91.982770
70
0
0
VERTEX
8
Layer 1
10
140.197265
20
94.775787
70
0
0
VERTEX
8
Layer 1
10
139.760047
20
97.521498
70
0
0
VERTEX
8
Layer 1
10
139.041361
20
100.201370
70
0
0
VERTEX
8
Layer 1
10
138.049398
20
102.796876
70
0
0
VERTEX
8
Layer 1
10
136.792348
20
105.289485
70
0
0
VERTEX
8
Layer 1
10
135.278401
20
107.660667
70
0
0
VERTEX
8
Layer 1
10
133.515747
20
109.891893
70
0
0
VERTEX
8
Layer 1
10
131.512578
20
111.964633
70
0
0
VERTEX
8
Layer 1
10
129.300728
20
113.841816
70
0
0
VERTEX
8
Layer 1
10
126.919756
20
115.493611
70
0
0
VERTEX
8
Layer 1
10
124.389434
20
116.912341
70
0
0
VERTEX
8
Layer 1
10
121.729535
20
118.090332
70
0
0
VERTEX
8
Layer 1
10
118.959835
20
119.019907
70
0
0
VERTEX
8
Layer 1
10
116.100104
20
119.693392
70
0
0
VERTEX
8
Layer 1
10
113.170118
20
120.103112
70
0
0
VERTEX
8
Layer 1
10
110.189650
20
120.241391
70
0
0
VERTEX
8
Layer 1
10
110.189650
20
120.241391
70
0
0
SEQEND
8
Layer 1
0
POLYLINE
8
Layer 1
62
7
70
0
10
0.000000
20
0.000000
66
1
0
VERTEX
8
Layer 1
10
211.709630
20
120.514881
70
0
0
VERTEX
8
Layer 1
10
209.438088
20
120.434981
70
0
0
VERTEX
8
Layer 1
10
207.202203
20
120.198417
70
0
0
VERTEX
8
Layer 1
10
205.009487
20
119.809892
70
0
0
VERTEX
8
Layer 1
10
202.867451
20
119.274108
70
0
0
VERTEX
8
Layer 1
10
200.783605
20
118.595769
70
0
0
VERTEX
8
Layer 1
10
198.765459
20
117.779577
70
0
0
VERTEX
8
Layer 1
10
196.820525
20
116.830234
70
0
0
VERTEX
8
Layer 1
10
194.956313
20
115.752445
70
0
0
VERTEX
8
Layer 1
10
193.180333
20
114.550911
70
0
0
VERTEX
8
Layer 1
10
191.500097
20
113.230335
70
0
0
VERTEX
8
Layer 1
10
189.923114
20
111.795421
70
0
0
VERTEX
8
Layer 1
10
188.456896
20
110.250870
70
0
0
VERTEX
8
Layer 1
10
187.108953
20
108.601387
70
0
0
VERTEX
8
Layer 1
10
185.886796
20
106.851673
70
0
0
VERTEX
8
Layer 1
10
184.797936
20
105.006432
70
0
0
VERTEX
8
Layer 1
10
183.849882
20
103.070366
70
0
0
VERTEX
8
Layer 1
10
183.059372
20
101.073148
70
0
0
VERTEX
8
Layer 1
10
182.436961
20
99.046848
70
0
0
VERTEX
8
Layer 1
10
181.980886
20
96.999770
70
0
0
VERTEX
8
Layer 1
10
181.689386
20
94.940216
70
0
0
VERTEX
8
Layer 1
10
181.560697
20
92.876487
70
0
0
VERTEX
8
Layer 1
10
181.593058
20
90.816886
70
0
0
VERTEX
8
Layer 1
10
181.784706
20
88.769715
70
0
0
VERTEX
8
Layer 1
10
182.133879
20
86.743277
70
0
0
VERTEX
8
Layer 1
10
182.638815
20
84.745873
70
0
0
VERTEX
8
Layer 1
10
183.297752
20
82.785805
70
0
0
VERTEX
8
Layer 1
10
184.108928
20
80.871377
70
0
0
VERTEX
8
Layer 1
10
185.070579
20
79.010890
70
0
0
VERTEX
8
Layer 1
10
186.180945
20
77.212646
70
0
0
VERTEX
8
Layer 1
10
187.438262
20
75.484948
70
0
0
VERTEX
8
Layer 1
10
188.840768
20
73.836098
70
0
0
VERTEX
8
Layer 1
10
190.386702
20
72.274397
70
0
0
VERTEX
8
Layer 1
10
192.053214
20
70.825692
70
0
0
VERTEX
8
Layer 1
10
193.812726
20
69.511394
70
0
0
VERTEX
8
Layer 1
10
195.656377
20
68.333153
70
0
0
VERTEX
8
Layer 1
10
197.575308
20
67.292622
70
0
0
VERTEX
8
Layer 1
10
199.560660
20
66.391452
70
0
0
VERTEX
8
Layer 1
10
201.603574
20
65.631294
70
0
0
VERTEX
8
Layer 1
10
205.826647
20
64.540620
70
0
0
VERTEX
8
Layer 1
10
210.173654
20
64.033813
70
0
0
VERTEX
8
Layer 1
10
212.371483
20
64.003487
70
0
0
VERTEX
8
Layer 1
10
214.573717
20
64.124082
70
0
0
VERTEX
8
Layer 1
10
216.771497
20
64.397250
70
0
0
VERTEX
8
Layer 1
10
218.955963
20
64.824641
70
0
0
VERTEX
8
Layer 1
10
221.118255
20
65.407906
70
0
0
VERTEX
8
Layer 1
10
223.249515
20
66.148698
70
0
0
VERTEX
8
Layer 1
10
225.315519
20
67.037126
70
0
0
VERTEX
8
Layer 1
10
227.284602
20
68.057505
70
0
0
VERTEX
8
Layer 1
10
229.151746
20
69.202797
70
0
0
VERTEX
8
Layer 1
10
230.911933
20
70.465963
70
0
0
VERTEX
8
Layer 1
10
232.560145
20
71.839966
70
0
0
VERTEX
8
Layer 1
10
234.091362
20
73.317767
70
0
0
VERTEX
8
Layer 1
10
235.500567
20
74.892329
70
0
0
VERTEX
8
Layer 1
10
236.782741
20
76.556611
70
0
0
VERTEX
8
Layer 1
10
237.932865
20
78.303577
70
0
0
VERTEX
8
Layer 1
10
238.945922
20
80.126189
70
0
0
VERTEX
8
Layer 1
10
239.816892
20
82.017407
70
0
0
VERTEX
8
Layer 1
10
240.540758
20
83.970193
70
0
0
VERTEX
8
Layer 1
10
241.112500
20
85.977510
70
0
0
VERTEX
8
Layer 1
10
241.527101
20
88.032319
70
0
0
VERTEX
8
Layer 1
10
241.779542
20
90.127582
70
0
0
VERTEX
8
Layer 1
10
241.864804
20
92.256260
70
0
0
VERTEX
8
Layer 1
10
241.709116
20
95.145540
70
0
0
VERTEX
8
Layer 1
10
241.252158
20
97.951358
70
0
0
VERTEX
8
Layer 1
10
240.509087
20
100.659509
70
0
0
VERTEX
8
Layer 1
10
239.495061
20
103.255791
70
0
0
VERTEX
8
Layer 1
10
238.225237
20
105.725997
70
0
0
VERTEX
8
Layer 1
10
236.714774
20
108.055924
70
0
0
VERTEX
8
Layer 1
10
234.978828
20
110.231367
70
0
0
VERTEX
8
Layer 1
10
233.032558
20
112.238123
70
0
0
VERTEX
8
Layer 1
10
230.891121
20
114.061986
70
0
0
VERTEX
8
Layer 1
10
228.569675
20
115.688752
70
0
0
VERTEX
8
Layer 1
10
226.083377
20
117.104218
70
0
0
VERTEX
8
Layer 1
10
223.447385
20
118.294178
70
0
0
VERTEX
8
Layer 1
10
220.676856
20
119.244429
70
0
0
VERTEX
8
Layer 1
10
217.786949
20
119.940766
70
0
0
VERTEX
8
Layer 1
10
214.792821
20
120.368985
70
0
0
VERTEX
8
Layer 1
10
211.709630
20
120.514881
70
0
0
VERTEX
8
Layer 1
10
211.709630
20
120.514881
70
0
0
SEQEND
8
Layer 1
0
POLYLINE
8
Layer 1
62
7
70
0
10
0.000000
20
0.000000
66
1
0
VERTEX
8
Layer 1
10
312.999880
20
121.156391
70
0
0
VERTEX
8
Layer 1
10
310.728338
20
121.076491
70
0
0
VERTEX
8
Layer 1
10
308.492453
20
120.839927
70
0
0
VERTEX
8
Layer 1
10
306.299737
20
120.451402
70
0
0
VERTEX
8
Layer 1
10
304.157701
20
119.915618
70
0
0
VERTEX
8
Layer 1
10
302.073855
20
119.237279
70
0
0
VERTEX
8
Layer 1
10
300.055709
20
118.421087
70
0
0
VERTEX
8
Layer 1
10
298.110775
20
117.471744
70
0
0
VERTEX
8
Layer 1
10
296.246563
20
116.393955
70
0
0
VERTEX
8
Layer 1
10
294.470583
20
115.192421
70
0
0
VERTEX
8
Layer 1
10
292.790347
20
113.871845
70
0
0
VERTEX
8
Layer 1
10
291.213364
20
112.436931
70
0
0
VERTEX
8
Layer 1
10
289.747146
20
110.892380
70
0
0
VERTEX
8
Layer 1
10
288.399203
20
109.242897
70
0
0
VERTEX
8
Layer 1
10
287.177046
20
107.493183
70
0
0
VERTEX
8
Layer 1
10
286.088186
20
105.647942
70
0
0
VERTEX
8
Layer 1
10
285.140132
20
103.711876
70
0
0
VERTEX
8
Layer 1
10
284.349622
20
101.714658
70
0
0
VERTEX
8
Layer 1
10
283.727211
20
99.688358
70
0
0
VERTEX
8
Layer 1
10
283.271136
20
97.641280
70
0
0
VERTEX
8
Layer 1
10
282.979636
20
95.581726
70
0
0
VERTEX
8
Layer 1
10
282.850947
20
93.517997
70
0
0
VERTEX
8
Layer 1
10
282.883308
20
91.458396
70
0
0
VERTEX
8
Layer 1
10
283.074956
20
89.411225
70
0
0
VERTEX
8
Layer 1
10
283.424129
20
87.384787
70
0
0
VERTEX
8
Layer 1
10
283.929065
20
85.387383
70
0
0
VERTEX
8
Layer 1
10
284.588002
20
83.427315
70
0
0
VERTEX
8
Layer 1
10
285.399178
20
81.512887
70
0
0
VERTEX
8
Layer 1
10
286.360829
20
79.652400
70
0
0
VERTEX
8
Layer 1
10
287.471195
20
77.854156
70
0
0
VERTEX
8
Layer 1
10
288.728512
20
76.126458
70
0
0
VERTEX
8
Layer 1
10
290.131018
20
74.477608
70
0
0
VERTEX
8
Layer 1
10
291.676952
20
72.915907
70
0
0
VERTEX
8
Layer 1
10
293.343464
20
71.467202
70
0
0
VERTEX
8
Layer 1
10
295.102976
20
70.152904
70
0
0
VERTEX
8
Layer 1
10
296.946627
20
68.974663
70
0
0
VERTEX
8
Layer 1
10
298.865558
20
67.934132
70
0
0
VERTEX
8
Layer 1
10
300.850910
20
67.032962
70
0
0
VERTEX
8
Layer 1
10
302.893824
20
66.272804
70
0
0
VERTEX
8
Layer 1
10
307.116897
20
65.182130
70
0
0
VERTEX
8
Layer 1
10
311.463904
20
64.675323
70
0
0
VERTEX
8
Layer 1
10
313.661733
20
64.644997
70
0
0
VERTEX
8
Layer 1
10
315.863967
20
64.765592
70
0
0
VERTEX
8
Layer 1
10
318.061747
20
65.038760
70
0
0
VERTEX
8
Layer 1
10
320.246213
20
65.466151
70
0
0
VERTEX
8
Layer 1
10
322.408505
20
66.049416
70
0
0
VERTEX
8
Layer 1
10
324.539765
20
66.790208
70
0
0
VERTEX
8
Layer 1
10
326.605769
20
67.678636
70
0
0
VERTEX
8
Layer 1
10
328.574852
20
68.699015
70
0
0
VERTEX
8
Layer 1
10
330.441996
20
69.844307
70
0
0
VERTEX
8
Layer 1
10
332.202183
20
71.107473
70
0
0
VERTEX
8
Layer 1
10
333.850395
20
72.481476
70
0
0
VERTEX
8
Layer 1
10
335.381612
20
73.959277
70
0
0
VERTEX
8
Layer 1
10
336.790817
20
75.533839
70
0
0
VERTEX
8
Layer 1
10
338.072991
20
77.198121
70
0
0
VERTEX
8
Layer 1
10
339.223115
20
78.945087
70
0
0
VERTEX
8
Layer 1
10
340.236172
20
80.767699
70
0
0
VERTEX
8
Layer 1
10
341.107142
20
82.658917
70
0
0
VERTEX
8
Layer 1
10
341.831008
20
84.611703
70
0
0
VERTEX
8
Layer 1
10
342.402750
20
86.619020
70
0
0
VERTEX
8
Layer 1
10
342.817351
20
88.673829
70
0
0
VERTEX
8
Layer 1
10
343.069792
20
90.769092
70
0
0
VERTEX
8
Layer 1
10
343.155054
20
92.897770
70
0
0
VERTEX
8
Layer 1
10
343.007495
20
95.690787
70
0
0
VERTEX
8
Layer 1
10
342.570277
20
98.436498
70
0
0
VERTEX
8
Layer 1
10
341.851591
20
101.116370
70
0
0
VERTEX
8
Layer 1
10
340.859628
20
103.711876
70
0
0
VERTEX
8
Layer 1
10
339.602578
20
106.204485
70
0
0
VERTEX
8
Layer 1
10
338.088631
20
108.575667
70
0
0
VERTEX
8
Layer 1
10
336.325977
20
110.806893
70
0
0
VERTEX
8
Layer 1
10
334.322808
20
112.879633
70
0
0
VERTEX
8
Layer 1
10
332.110958
20
114.756816
70
0
0
VERTEX
8
Layer 1
10
329.729986
20
116.408611
70
0
0
VERTEX
8
Layer 1
10
327.199664
20
117.827341
70
0
0
VERTEX
8
Layer 1
10
324.539765
20
119.005332
70
0
0
VERTEX
8
Layer 1
10
321.770065
20
119.934907
70
0
0
VERTEX
8
Layer 1
10
318.910334
20
120.608392
70
0
0
VERTEX
8
Layer 1
10
315.980348
20
121.018112
70
0
0
VERTEX
8
Layer 1
10
312.999880
20
121.156391
70
0
0
VERTEX
8
Layer 1
10
312.999880
20
121.156391
70
0
0
SEQEND
8
Layer 1
0
POLYLINE
8
Layer 1
62
7
70
0
10
0.000000
20
0.000000
66
1
0
VERTEX
8
Layer 1
10
110.111580
20
211.360121
70
0
0
VERTEX
8
Layer 1
10
107.840038
20
211.280221
70
0
0
VERTEX
8
Layer 1
10
105.604153
20
211.043657
70
0
0
VERTEX
8
Layer 1
10
103.411437
20
210.655132
70
0
0
VERTEX
8
Layer 1
10
101.269401
20
210.119348
70
0
0
VERTEX
8
Layer 1
10
99.185555
20
209.441009
70
0
0
VERTEX
8
Layer 1
10
97.167409
20
208.624817
70
0
0
VERTEX
8
Layer 1
10
95.222475
20
207.675474
70
0
0
VERTEX
8
Layer 1
10
93.358263
20
206.597685
70
0
0
VERTEX
8
Layer 1
10
91.582283
20
205.396151
70
0
0
VERTEX
8
Layer 1
10
89.902047
20
204.075575
70
0
0
VERTEX
8
Layer 1
10
88.325064
20
202.640661
70
0
0
VERTEX
8
Layer 1
10
86.858846
20
201.096110
70
0
0
VERTEX
8
Layer 1
10
85.510903
20
199.446627
70
0
0
VERTEX
8
Layer 1
10
84.288746
20
197.696913
70
0
0
VERTEX
8
Layer 1
10
83.199886
20
195.851672
70
0
0
VERTEX
8
Layer 1
10
82.251832
20
193.915606
70
0
0
VERTEX
8
Layer 1
10
81.461322
20
191.918388
70
0
0
VERTEX
8
Layer 1
10
80.838911
20
189.892088
70
0
0
VERTEX
8
Layer 1
10
80.382836
20
187.845010
70
0
0
VERTEX
8
Layer 1
10
80.091336
20
185.785456
70
0
0
VERTEX
8
Layer 1
10
79.962647
20
183.721727
70
0
0
VERTEX
8
Layer 1
10
79.995008
20
181.662126
70
0
0
VERTEX
8
Layer 1
10
80.186656
20
179.614955
70
0
0
VERTEX
8
Layer 1
10
80.535829
20
177.588517
70
0
0
VERTEX
8
Layer 1
10
81.040765
20
175.591113
70
0
0
VERTEX
8
Layer 1
10
81.699702
20
173.631045
70
0
0
VERTEX
8
Layer 1
10
82.510878
20
171.716617
70
0
0
VERTEX
8
Layer 1
10
83.472529
20
169.856130
70
0
0
VERTEX
8
Layer 1
10
84.582895
20
168.057886
70
0
0
VERTEX
8
Layer 1
10
85.840212
20
166.330188
70
0
0
VERTEX
8
Layer 1
10
87.242718
20
164.681338
70
0
0
VERTEX
8
Layer 1
10
88.788652
20
163.119637
70
0
0
VERTEX
8
Layer 1
10
90.455164
20
161.670932
70
0
0
VERTEX
8
Layer 1
10
92.214676
20
160.356634
70
0
0
VERTEX
8
Layer 1
10
94.058327
20
159.178393
70
0
0
VERTEX
8
Layer 1
10
95.977258
20
158.137862
70
0
0
VERTEX
8
Layer 1
10
97.962610
20
157.236692
70
0
0
VERTEX
8
Layer 1
10
100.005524
20
156.476534
70
0
0
VERTEX
8
Layer 1
10
104.228597
20
155.385860
70
0
0
VERTEX
8
Layer 1
10
108.575604
20
154.879053
70
0
0
VERTEX
8
Layer 1
10
110.773433
20
154.848727
70
0
0
VERTEX
8
Layer 1
10
112.975667
20
154.969322
70
0
0
VERTEX
8
Layer 1
10
115.173447
20
155.242490
70
0
0
VERTEX
8
Layer 1
10
117.357913
20
155.669881
70
0
0
VERTEX
8
Layer 1
10
119.520205
20
156.253146
70
0
0
VERTEX
8
Layer 1
10
121.651465
20
156.993938
70
0
0
VERTEX
8
Layer 1
10
123.717469
20
157.882366
70
0
0
VERTEX
8
Layer 1
10
125.686552
20
158.902745
70
0
0
VERTEX
8
Layer 1
10
127.553696
20
160.048037
70
0
0
VERTEX
8
Layer 1
10
129.313883
20
161.311203
70
0
0
VERTEX
8
Layer 1
10
130.962095
20
162.685206
70
0
0
VERTEX
8
Layer 1
10
132.493312
20
164.163007
70
0
0
VERTEX
8
Layer 1
10
133.902517
20
165.737569
70
0
0
VERTEX
8
Layer 1
10
135.184691
20
167.401851
70
0
0
VERTEX
8
Layer 1
10
136.334815
20
169.148817
70
0
0
VERTEX
8
Layer 1
10
137.347872
20
170.971429
70
0
0
VERTEX
8
Layer 1
10
138.218842
20
172.862647
70
0
0
VERTEX
8
Layer 1
10
138.942708
20
174.815433
70
0
0
VERTEX
8
Layer 1
10
139.514450
20
176.822750
70
0
0
VERTEX
8
Layer 1
10
139.929051
20
178.877559
70
0
0
VERTEX
8
Layer 1
10
140.181492
20
180.972822
70
0
0
VERTEX
8
Layer 1
10
140.266754
20
183.101500
70
0
0
VERTEX
8
Layer 1
10
140.119195
20
185.894517
70
0
0
VERTEX
8
Layer 1
10
139.681977
20
188.640228
70
0
0
VERTEX
8
Layer 1
10
138.963291
20
191.320100
70
0
0
VERTEX
8
Layer 1
10
137.971328
20
193.915606
70
0
0
VERTEX
8
Layer 1
10
136.714278
20
196.408215
70
0
0
VERTEX
8
Layer 1
10
135.200331
20
198.779397
70
0
0
VERTEX
8
Layer 1
10
133.437677
20
201.010623
70
0
0
VERTEX
8
Layer 1
10
131.434508
20
203.083363
70
0
0
VERTEX
8
Layer 1
10
129.222658
20
204.960546
70
0
0
VERTEX
8
Layer 1
10
126.841686
20
206.612341
70
0
0
VERTEX
8
Layer 1
10
124.311364
20
208.031071
70
0
0
VERTEX
8
Layer 1
10
121.651465
20
209.209062
70
0
0
VERTEX
8
Layer 1
10
118.881765
20
210.138637
70
0
0
VERTEX
8
Layer 1
10
116.022034
20
210.812122
70
0
0
VERTEX
8
Layer 1
10
113.092048
20
211.221842
70
0
0
VERTEX
8
Layer 1
10
110.111580
20
211.360121
70
0
0
VERTEX
8
Layer 1
10
110.111580
20
211.360121
70
0
0
SEQEND
8
Layer 1
0
POLYLINE
8
Layer 1
62
7
70
0
10
0.000000
20
0.000000
66
1
0
VERTEX
8
Layer 1
10
215.840590
20
213.342381
70
0
0
VERTEX
8
Layer 1
10
213.569048
20
213.262481
70
0
0
VERTEX
8
Layer 1
10
211.333163
20
213.025917
70
0
0
VERTEX
8
Layer 1
10
209.140447
20
212.637392
70
0
0
VERTEX
8
Layer 1
10
206.998411
20
212.101608
70
0
0
VERTEX
8
Layer 1
10
204.914565
20
211.423269
70
0
0
VERTEX
8
Layer 1
10
202.896419
20
210.607077
70
0
0
VERTEX
8
Layer 1
10
200.951485
20
209.657734
70
0
0
VERTEX
8
Layer 1
10
199.087273
20
208.579945
70
0
0
VERTEX
8
Layer 1
10
197.311293
20
207.378411
70
0
0
VERTEX
8
Layer 1
10
195.631057
20
206.057835
70
0
0
VERTEX
8
Layer 1
10
194.054074
20
204.622921
70
0
0
VERTEX
8
Layer 1
10
192.587856
20
203.078370
70
0
0
VERTEX
8
Layer 1
10
191.239913
20
201.428887
70
0
0
VERTEX
8
Layer 1
10
190.017756
20
199.679173
70
0
0
VERTEX
8
Layer 1
10
188.928896
20
197.833932
70
0
0
VERTEX
8
Layer 1
10
187.980842
20
195.897866
70
0
0
VERTEX
8
Layer 1
10
187.190332
20
193.900648
70
0
0
VERTEX
8
Layer 1
10
186.567921
20
191.874348
70
0
0
VERTEX
8
Layer 1
10
186.111846
20
189.827270
70
0
0
VERTEX
8
Layer 1
10
185.820346
20
187.767716
70
0
0
VERTEX
8
Layer 1
10
185.691657
20
185.703987
70
0
0
VERTEX
8
Layer 1
10
185.724018
20
183.644386
70
0
0
VERTEX
8
Layer 1
10
185.915666
20
181.597215
70
0
0
VERTEX
8
Layer 1
10
186.264839
20
179.570777
70
0
0
VERTEX
8
Layer 1
10
186.769775
20
177.573373
70
0
0
VERTEX
8
Layer 1
10
187.428712
20
175.613305
70
0
0
VERTEX
8
Layer 1
10
188.239888
20
173.698877
70
0
0
VERTEX
8
Layer 1
10
189.201539
20
171.838390
70
0
0
VERTEX
8
Layer 1
10
190.311905
20
170.040146
70
0
0
VERTEX
8
Layer 1
10
191.569222
20
168.312448
70
0
0
VERTEX
8
Layer 1
10
192.971728
20
166.663598
70
0
0
VERTEX
8
Layer 1
10
194.517662
20
165.101897
70
0
0
VERTEX
8
Layer 1
10
196.184174
20
163.653192
70
0
0
VERTEX
8
Layer 1
10
197.943686
20
162.338894
70
0
0
VERTEX
8
Layer 1
10
199.787337
20
161.160653
70
0
0
VERTEX
8
Layer 1
10
201.706268
20
160.120122
70
0
0
VERTEX
8
Layer 1
10
203.691620
20
159.218952
70
0
0
VERTEX
8
Layer 1
10
205.734534
20
158.458794
70
0
0
VERTEX
8
Layer 1
10
209.957607
20
157.368120
70
0
0
VERTEX
8
Layer 1
10
214.304614
20
156.861313
70
0
0
VERTEX
8
Layer 1
10
216.502443
20
156.830987
70
0
0
VERTEX
8
Layer 1
10
218.704677
20
156.951582
70
0
0
VERTEX
8
Layer 1
10
220.902457
20
157.224750
70
0
0
VERTEX
8
Layer 1
10
223.086923
20
157.652141
70
0
0
VERTEX
8
Layer 1
10
225.249215
20
158.235406
70
0
0
VERTEX
8
Layer 1
10
227.380475
20
158.976198
70
0
0
VERTEX
8
Layer 1
10
229.446479
20
159.864626
70
0
0
VERTEX
8
Layer 1
10
231.415562
20
160.885005
70
0
0
VERTEX
8
Layer 1
10
233.282706
20
162.030297
70
0
0
VERTEX
8
Layer 1
10
235.042893
20
163.293463
70
0
0
VERTEX
8
Layer 1
10
236.691105
20
164.667466
70
0
0
VERTEX
8
Layer 1
10
238.222322
20
166.145267
70
0
0
VERTEX
8
Layer 1
10
239.631527
20
167.719829
70
0
0
VERTEX
8
Layer 1
10
240.913701
20
169.384111
70
0
0
VERTEX
8
Layer 1
10
242.063825
20
171.131077
70
0
0
VERTEX
8
Layer 1
10
243.076882
20
172.953689
70
0
0
VERTEX
8
Layer 1
10
243.947852
20
174.844907
70
0
0
VERTEX
8
Layer 1
10
244.671718
20
176.797693
70
0
0
VERTEX
8
Layer 1
10
245.243460
20
178.805010
70
0
0
VERTEX
8
Layer 1
10
245.658061
20
180.859819
70
0
0
VERTEX
8
Layer 1
10
245.910502
20
182.955082
70
0
0
VERTEX
8
Layer 1
10
245.995764
20
185.083760
70
0
0
VERTEX
8
Layer 1
10
245.840076
20
187.973040
70
0
0
VERTEX
8
Layer 1
10
245.383118
20
190.778858
70
0
0
VERTEX
8
Layer 1
10
244.640047
20
193.487009
70
0
0
VERTEX
8
Layer 1
10
243.626021
20
196.083291
70
0
0
VERTEX
8
Layer 1
10
242.356197
20
198.553497
70
0
0
VERTEX
8
Layer 1
10
240.845734
20
200.883424
70
0
0
VERTEX
8
Layer 1
10
239.109788
20
203.058867
70
0
0
VERTEX
8
Layer 1
10
237.163518
20
205.065623
70
0
0
VERTEX
8
Layer 1
10
235.022081
20
206.889486
70
0
0
VERTEX
8
Layer 1
10
232.700635
20
208.516252
70
0
0
VERTEX
8
Layer 1
10
230.214337
20
209.931718
70
0
0
VERTEX
8
Layer 1
10
227.578345
20
211.121678
70
0
0
VERTEX
8
Layer 1
10
224.807816
20
212.071929
70
0
0
VERTEX
8
Layer 1
10
221.917909
20
212.768266
70
0
0
VERTEX
8
Layer 1
10
218.923781
20
213.196485
70
0
0
VERTEX
8
Layer 1
10
215.840590
20
213.342381
70
0
0
VERTEX
8
Layer 1
10
215.840590
20
213.342381
70
0
0
SEQEND
8
Layer 1
0
POLYLINE
8
Layer 1
62
7
70
0
10
0.000000
20
0.000000
66
1
0
VERTEX
8
Layer 1
10
318.908110
20
213.673131
70
0
0
VERTEX
8
Layer 1
10
316.636568
20
213.593231
70
0
0
VERTEX
8
Layer 1
10
314.400683
20
213.356667
70
0
0
VERTEX
8
Layer 1
10
312.207967
20
212.968142
70
0
0
VERTEX
8
Layer 1
10
310.065931
20
212.432358
70
0
0
VERTEX
8
Layer 1
10
307.982085
20
211.754019
70
0
0
VERTEX
8
Layer 1
10
305.963939
20
210.937827
70
0
0
VERTEX
8
Layer 1
10
304.019005
20
209.988484
70
0
0
VERTEX
8
Layer 1
10
302.154793
20
208.910695
70
0
0
VERTEX
8
Layer 1
10
300.378813
20
207.709161
70
0
0
VERTEX
8
Layer 1
10
298.698577
20
206.388585
70
0
0
VERTEX
8
Layer 1
10
297.121594
20
204.953671
70
0
0
VERTEX
8
Layer 1
10
295.655376
20
203.409120
70
0
0
VERTEX
8
Layer 1
10
294.307433
20
201.759637
70
0
0
VERTEX
8
Layer 1
10
293.085276
20
200.009923
70
0
0
VERTEX
8
Layer 1
10
291.996416
20
198.164682
70
0
0
VERTEX
8
Layer 1
10
291.048362
20
196.228616
70
0
0
VERTEX
8
Layer 1
10
290.257852
20
194.231398
70
0
0
VERTEX
8
Layer 1
10
289.635441
20
192.205098
70
0
0
VERTEX
8
Layer 1
10
289.179366
20
190.158020
70
0
0
VERTEX
8
Layer 1
10
288.887866
20
188.098466
70
0
0
VERTEX
8
Layer 1
10
288.759177
20
186.034737
70
0
0
VERTEX
8
Layer 1
10
288.791538
20
183.975136
70
0
0
VERTEX
8
Layer 1
10
288.983186
20
181.927965
70
0
0
VERTEX
8
Layer 1
10
289.332359
20
179.901527
70
0
0
VERTEX
8
Layer 1
10
289.837295
20
177.904123
70
0
0
VERTEX
8
Layer 1
10
290.496232
20
175.944055
70
0
0
VERTEX
8
Layer 1
10
291.307408
20
174.029627
70
0
0
VERTEX
8
Layer 1
10
292.269059
20
172.169140
70
0
0
VERTEX
8
Layer 1
10
293.379425
20
170.370896
70
0
0
VERTEX
8
Layer 1
10
294.636742
20
168.643198
70
0
0
VERTEX
8
Layer 1
10
296.039248
20
166.994348
70
0
0
VERTEX
8
Layer 1
10
297.585182
20
165.432647
70
0
0
VERTEX
8
Layer 1
10
299.251694
20
163.983942
70
0
0
VERTEX
8
Layer 1
10
301.011206
20
162.669644
70
0
0
VERTEX
8
Layer 1
10
302.854857
20
161.491403
70
0
0
VERTEX
8
Layer 1
10
304.773788
20
160.450872
70
0
0
VERTEX
8
Layer 1
10
306.759140
20
159.549702
70
0
0
VERTEX
8
Layer 1
10
308.802054
20
158.789544
70
0
0
VERTEX
8
Layer 1
10
313.025127
20
157.698870
70
0
0
VERTEX
8
Layer 1
10
317.372134
20
157.192063
70
0
0
VERTEX
8
Layer 1
10
319.569963
20
157.161737
70
0
0
VERTEX
8
Layer 1
10
321.772197
20
157.282332
70
0
0
VERTEX
8
Layer 1
10
323.969977
20
157.555500
70
0
0
VERTEX
8
Layer 1
10
326.154443
20
157.982891
70
0
0
VERTEX
8
Layer 1
10
328.316735
20
158.566156
70
0
0
VERTEX
8
Layer 1
10
330.447995
20
159.306948
70
0
0
VERTEX
8
Layer 1
10
332.513999
20
160.195376
70
0
0
VERTEX
8
Layer 1
10
334.483082
20
161.215755
70
0
0
VERTEX
8
Layer 1
10
336.350226
20
162.361047
70
0
0
VERTEX
8
Layer 1
10
338.110413
20
163.624213
70
0
0
VERTEX
8
Layer 1
10
339.758625
20
164.998216
70
0
0
VERTEX
8
Layer 1
10
341.289842
20
166.476017
70
0
0
VERTEX
8
Layer 1
10
342.699047
20
168.050579
70
0
0
VERTEX
8
Layer 1
10
343.981221
20
169.714861
70
0
0
VERTEX
8
Layer 1
10
345.131345
20
171.461827
70
0
0
VERTEX
8
Layer 1
10
346.144402
20
173.284439
70
0
0
VERTEX
8
Layer 1
10
347.015372
20
175.175657
70
0
0
VERTEX
8
Layer 1
10
347.739238
20
177.128443
70
0
0
VERTEX
8
Layer 1
10
348.310980
20
179.135760
70
0
0
VERTEX
8
Layer 1
10
348.725581
20
181.190569
70
0
0
VERTEX
8
Layer 1
10
348.978022
20
183.285832
70
0
0
VERTEX
8
Layer 1
10
349.063284
20
185.414510
70
0
0
VERTEX
8
Layer 1
10
348.915725
20
188.207527
70
0
0
VERTEX
8
Layer 1
10
348.478507
20
190.953238
70
0
0
VERTEX
8
Layer 1
10
347.759821
20
193.633110
70
0
0
VERTEX
8
Layer 1
10
346.767858
20
196.228616
70
0
0
VERTEX
8
Layer 1
10
345.510808
20
198.721225
70
0
0
VERTEX
8
Layer 1
10
343.996861
20
201.092407
70
0
0
VERTEX
8
Layer 1
10
342.234207
20
203.323633
70
0
0
VERTEX
8
Layer 1
10
340.231038
20
205.396373
70
0
0
VERTEX
8
Layer 1
10
338.019188
20
207.273556
70
0
0
VERTEX
8
Layer 1
10
335.638216
20
208.925351
70
0
0
VERTEX
8
Layer 1
10
333.107894
20
210.344081
70
0
0
VERTEX
8
Layer 1
10
330.447995
20
211.522072
70
0
0
VERTEX
8
Layer 1
10
327.678295
20
212.451647
70
0
0
VERTEX
8
Layer 1
10
324.818564
20
213.125132
70
0
0
VERTEX
8
Layer 1
10
321.888578
20
213.534852
70
0
0
VERTEX
8
Layer 1
10
318.908110
20
213.673131
70
0
0
VERTEX
8
Layer 1
10
318.908110
20
213.673131
70
0
0
SEQEND
8
Layer 1
 0 
ENDSEC
 0 
EOF