999
"DXF R12 Output" (www.mydxf.blogspot.com)
 0 
SECTION
 2 
HEADER
 9 
$ACADVER
 1 
AC1009
 9 
$EXTMIN
 10 
 0 
 20 
 0 
 9 
$EXTMAX
 10 
 8.5 
 20 
 11 
 0 
ENDSEC
 0 
SECTION
 2 
ENTITIES
0
POLYLINE
8
Layer 1
62
7
70
0
10
0.000000
20
0.000000
66
1
0
VERTEX
8
Layer 1
10
25.743164
20
250.352400
70
0
0
VERTEX
8
Layer 1
10
25.743164
20
252.911411
70
0
0
VERTEX
8
Layer 1
10
26.086295
20
252.911411
70
0
0
VERTEX
8
Layer 1
10
26.086295
20
251.836544
70
0
0
VERTEX
8
Layer 1
10
27.483623
20
251.836544
70
0
0
VERTEX
8
Layer 1
10
27.483623
20
252.911411
70
0
0
VERTEX
8
Layer 1
10
27.822619
20
252.911411
70
0
0
VERTEX
8
Layer 1
10
27.822619
20
250.352400
70
0
0
VERTEX
8
Layer 1
10
27.483623
20
250.352400
70
0
0
VERTEX
8
Layer 1
10
27.483623
20
251.538888
70
0
0
VERTEX
8
Layer 1
10
26.086295
20
251.538888
70
0
0
VERTEX
8
Layer 1
10
26.086295
20
250.352400
70
0
0
VERTEX
8
Layer 1
10
25.743164
20
250.352400
70
0
0
SEQEND
8
Layer 1
0
POLYLINE
8
Layer 1
62
7
70
0
10
0.000000
20
0.000000
66
1
0
VERTEX
8
Layer 1
10
29.236483
20
250.319327
70
0
0
VERTEX
8
Layer 1
10
28.740391
20
250.443350
70
0
0
VERTEX
8
Layer 1
10
28.455137
20
250.786481
70
0
0
VERTEX
8
Layer 1
10
28.364187
20
251.278439
70
0
0
VERTEX
8
Layer 1
10
28.451003
20
251.778666
70
0
0
VERTEX
8
Layer 1
10
28.727988
20
252.113529
70
0
0
VERTEX
8
Layer 1
10
29.199276
20
252.237552
70
0
0
VERTEX
8
Layer 1
10
29.794587
20
252.006042
70
0
0
VERTEX
8
Layer 1
10
30.009561
20
251.352853
70
0
0
VERTEX
8
Layer 1
10
30.005426
20
251.282573
70
0
0
VERTEX
8
Layer 1
10
30.001292
20
251.228830
70
0
0
VERTEX
8
Layer 1
10
28.682513
20
251.228830
70
0
0
VERTEX
8
Layer 1
10
28.736256
20
250.893967
70
0
0
VERTEX
8
Layer 1
10
28.914023
20
250.654189
70
0
0
VERTEX
8
Layer 1
10
29.236483
20
250.563239
70
0
0
VERTEX
8
Layer 1
10
29.571346
20
250.662458
70
0
0
VERTEX
8
Layer 1
10
29.695369
20
250.951845
70
0
0
VERTEX
8
Layer 1
10
30.009561
20
250.951845
70
0
0
VERTEX
8
Layer 1
10
29.910342
20
250.612848
70
0
0
VERTEX
8
Layer 1
10
29.641625
20
250.393741
70
0
0
VERTEX
8
Layer 1
10
29.236483
20
250.319327
70
0
0
VERTEX
8
Layer 1
10
29.236483
20
250.319327
70
0
0
SEQEND
8
Layer 1
0
POLYLINE
8
Layer 1
62
7
70
0
10
0.000000
20
0.000000
66
1
0
VERTEX
8
Layer 1
10
28.682513
20
251.460340
70
0
0
VERTEX
8
Layer 1
10
29.695369
20
251.460340
70
0
0
VERTEX
8
Layer 1
10
29.558943
20
251.857214
70
0
0
VERTEX
8
Layer 1
10
29.199276
20
251.993640
70
0
0
VERTEX
8
Layer 1
10
28.835475
20
251.857214
70
0
0
VERTEX
8
Layer 1
10
28.682513
20
251.460340
70
0
0
VERTEX
8
Layer 1
10
28.682513
20
251.460340
70
0
0
SEQEND
8
Layer 1
0
POLYLINE
8
Layer 1
62
7
70
0
10
0.000000
20
0.000000
66
1
0
VERTEX
8
Layer 1
10
31.068925
20
250.352400
70
0
0
VERTEX
8
Layer 1
10
30.721661
20
250.422679
70
0
0
VERTEX
8
Layer 1
10
30.556296
20
250.625251
70
0
0
VERTEX
8
Layer 1
10
30.514955
20
250.951845
70
0
0
VERTEX
8
Layer 1
10
30.514955
20
252.911411
70
0
0
VERTEX
8
Layer 1
10
30.829147
20
252.911411
70
0
0
VERTEX
8
Layer 1
10
30.829147
20
250.968381
70
0
0
VERTEX
8
Layer 1
10
30.874623
20
250.703799
70
0
0
VERTEX
8
Layer 1
10
31.089596
20
250.612848
70
0
0
VERTEX
8
Layer 1
10
31.176412
20
250.612848
70
0
0
VERTEX
8
Layer 1
10
31.176412
20
250.352400
70
0
0
VERTEX
8
Layer 1
10
31.068925
20
250.352400
70
0
0
SEQEND
8
Layer 1
0
POLYLINE
8
Layer 1
62
7
70
0
10
0.000000
20
0.000000
66
1
0
VERTEX
8
Layer 1
10
32.081781
20
250.352400
70
0
0
VERTEX
8
Layer 1
10
31.734517
20
250.422679
70
0
0
VERTEX
8
Layer 1
10
31.569152
20
250.625251
70
0
0
VERTEX
8
Layer 1
10
31.527811
20
250.951845
70
0
0
VERTEX
8
Layer 1
10
31.527811
20
252.911411
70
0
0
VERTEX
8
Layer 1
10
31.842003
20
252.911411
70
0
0
VERTEX
8
Layer 1
10
31.842003
20
250.968381
70
0
0
VERTEX
8
Layer 1
10
31.887478
20
250.703799
70
0
0
VERTEX
8
Layer 1
10
32.102452
20
250.612848
70
0
0
VERTEX
8
Layer 1
10
32.189268
20
250.612848
70
0
0
VERTEX
8
Layer 1
10
32.189268
20
250.352400
70
0
0
VERTEX
8
Layer 1
10
32.081781
20
250.352400
70
0
0
SEQEND
8
Layer 1
0
POLYLINE
8
Layer 1
62
7
70
0
10
0.000000
20
0.000000
66
1
0
VERTEX
8
Layer 1
10
33.322013
20
250.323461
70
0
0
VERTEX
8
Layer 1
10
32.854859
20
250.435082
70
0
0
VERTEX
8
Layer 1
10
32.557203
20
250.765810
70
0
0
VERTEX
8
Layer 1
10
32.457985
20
251.274305
70
0
0
VERTEX
8
Layer 1
10
32.557203
20
251.791068
70
0
0
VERTEX
8
Layer 1
10
32.854859
20
252.125931
70
0
0
VERTEX
8
Layer 1
10
33.322013
20
252.241686
70
0
0
VERTEX
8
Layer 1
10
33.793301
20
252.125931
70
0
0
VERTEX
8
Layer 1
10
34.095091
20
251.791068
70
0
0
VERTEX
8
Layer 1
10
34.202577
20
251.274305
70
0
0
VERTEX
8
Layer 1
10
34.095091
20
250.765810
70
0
0
VERTEX
8
Layer 1
10
33.793301
20
250.435082
70
0
0
VERTEX
8
Layer 1
10
33.322013
20
250.323461
70
0
0
VERTEX
8
Layer 1
10
33.322013
20
250.323461
70
0
0
SEQEND
8
Layer 1
0
POLYLINE
8
Layer 1
62
7
70
0
10
0.000000
20
0.000000
66
1
0
VERTEX
8
Layer 1
10
33.322013
20
250.575641
70
0
0
VERTEX
8
Layer 1
10
33.644473
20
250.666592
70
0
0
VERTEX
8
Layer 1
10
33.822240
20
250.914638
70
0
0
VERTEX
8
Layer 1
10
33.875983
20
251.274305
70
0
0
VERTEX
8
Layer 1
10
33.822240
20
251.642241
70
0
0
VERTEX
8
Layer 1
10
33.644473
20
251.894421
70
0
0
VERTEX
8
Layer 1
10
33.322013
20
251.989505
70
0
0
VERTEX
8
Layer 1
10
33.003687
20
251.894421
70
0
0
VERTEX
8
Layer 1
10
32.834188
20
251.642241
70
0
0
VERTEX
8
Layer 1
10
32.784579
20
251.274305
70
0
0
VERTEX
8
Layer 1
10
32.834188
20
250.914638
70
0
0
VERTEX
8
Layer 1
10
33.003687
20
250.666592
70
0
0
VERTEX
8
Layer 1
10
33.322013
20
250.575641
70
0
0
VERTEX
8
Layer 1
10
33.322013
20
250.575641
70
0
0
SEQEND
8
Layer 1
0
POLYLINE
8
Layer 1
62
7
70
0
10
0.000000
20
0.000000
66
1
0
VERTEX
8
Layer 1
10
34.614955
20
249.823234
70
0
0
VERTEX
8
Layer 1
10
34.536406
20
250.001001
70
0
0
VERTEX
8
Layer 1
10
34.730709
20
250.141560
70
0
0
VERTEX
8
Layer 1
10
34.829928
20
250.352400
70
0
0
VERTEX
8
Layer 1
10
34.850597
20
250.331729
70
0
0
VERTEX
8
Layer 1
10
34.672831
20
250.402009
70
0
0
VERTEX
8
Layer 1
10
34.602551
20
250.571507
70
0
0
VERTEX
8
Layer 1
10
34.672831
20
250.745140
70
0
0
VERTEX
8
Layer 1
10
34.850597
20
250.811285
70
0
0
VERTEX
8
Layer 1
10
35.024230
20
250.736871
70
0
0
VERTEX
8
Layer 1
10
35.094510
20
250.509496
70
0
0
VERTEX
8
Layer 1
10
35.028364
20
250.199438
70
0
0
VERTEX
8
Layer 1
10
34.858866
20
249.976196
70
0
0
VERTEX
8
Layer 1
10
34.614953
20
249.823234
70
0
0
VERTEX
8
Layer 1
10
34.614955
20
249.823234
70
0
0
SEQEND
8
Layer 1
0
POLYLINE
8
Layer 1
62
7
70
0
10
0.000000
20
0.000000
66
1
0
VERTEX
8
Layer 1
10
36.459799
20
250.352400
70
0
0
VERTEX
8
Layer 1
10
36.459799
20
252.911411
70
0
0
VERTEX
8
Layer 1
10
36.773991
20
252.911411
70
0
0
VERTEX
8
Layer 1
10
36.773991
20
251.919226
70
0
0
VERTEX
8
Layer 1
10
37.017903
20
252.130065
70
0
0
VERTEX
8
Layer 1
10
37.427180
20
252.229284
70
0
0
VERTEX
8
Layer 1
10
37.873663
20
252.051517
70
0
0
VERTEX
8
Layer 1
10
38.010088
20
251.547156
70
0
0
VERTEX
8
Layer 1
10
38.010088
20
250.352400
70
0
0
VERTEX
8
Layer 1
10
37.695896
20
250.352400
70
0
0
VERTEX
8
Layer 1
10
37.695896
20
251.501681
70
0
0
VERTEX
8
Layer 1
10
37.666958
20
251.737325
70
0
0
VERTEX
8
Layer 1
10
37.563605
20
251.902689
70
0
0
VERTEX
8
Layer 1
10
37.352766
20
251.964701
70
0
0
VERTEX
8
Layer 1
10
37.005501
20
251.869616
70
0
0
VERTEX
8
Layer 1
10
36.778126
20
251.662911
70
0
0
VERTEX
8
Layer 1
10
36.778126
20
250.352400
70
0
0
VERTEX
8
Layer 1
10
36.459799
20
250.352400
70
0
0
SEQEND
8
Layer 1
0
POLYLINE
8
Layer 1
62
7
70
0
10
0.000000
20
0.000000
66
1
0
VERTEX
8
Layer 1
10
39.374343
20
250.323461
70
0
0
VERTEX
8
Layer 1
10
38.907189
20
250.435082
70
0
0
VERTEX
8
Layer 1
10
38.609534
20
250.765810
70
0
0
VERTEX
8
Layer 1
10
38.510315
20
251.274305
70
0
0
VERTEX
8
Layer 1
10
38.609534
20
251.791068
70
0
0
VERTEX
8
Layer 1
10
38.907189
20
252.125931
70
0
0
VERTEX
8
Layer 1
10
39.374343
20
252.241686
70
0
0
VERTEX
8
Layer 1
10
39.845631
20
252.125931
70
0
0
VERTEX
8
Layer 1
10
40.147421
20
251.791068
70
0
0
VERTEX
8
Layer 1
10
40.254908
20
251.274305
70
0
0
VERTEX
8
Layer 1
10
40.147421
20
250.765810
70
0
0
VERTEX
8
Layer 1
10
39.845631
20
250.435082
70
0
0
VERTEX
8
Layer 1
10
39.374343
20
250.323461
70
0
0
VERTEX
8
Layer 1
10
39.374343
20
250.323461
70
0
0
SEQEND
8
Layer 1
0
POLYLINE
8
Layer 1
62
7
70
0
10
0.000000
20
0.000000
66
1
0
VERTEX
8
Layer 1
10
39.374343
20
250.575641
70
0
0
VERTEX
8
Layer 1
10
39.696804
20
250.666592
70
0
0
VERTEX
8
Layer 1
10
39.874570
20
250.914638
70
0
0
VERTEX
8
Layer 1
10
39.928313
20
251.274305
70
0
0
VERTEX
8
Layer 1
10
39.874570
20
251.642241
70
0
0
VERTEX
8
Layer 1
10
39.696804
20
251.894421
70
0
0
VERTEX
8
Layer 1
10
39.374343
20
251.989505
70
0
0
VERTEX
8
Layer 1
10
39.056017
20
251.894421
70
0
0
VERTEX
8
Layer 1
10
38.886519
20
251.642241
70
0
0
VERTEX
8
Layer 1
10
38.836910
20
251.274305
70
0
0
VERTEX
8
Layer 1
10
38.886519
20
250.914638
70
0
0
VERTEX
8
Layer 1
10
39.056017
20
250.666592
70
0
0
VERTEX
8
Layer 1
10
39.374343
20
250.575641
70
0
0
VERTEX
8
Layer 1
10
39.374343
20
250.575641
70
0
0
SEQEND
8
Layer 1
0
POLYLINE
8
Layer 1
62
7
70
1
10
0.000000
20
0.000000
66
1
0
VERTEX
8
Layer 1
10
41.034187
20
250.352400
70
0
0
VERTEX
8
Layer 1
10
40.443010
20
252.204479
70
0
0
VERTEX
8
Layer 1
10
40.773738
20
252.204479
70
0
0
VERTEX
8
Layer 1
10
41.211953
20
250.707933
70
0
0
VERTEX
8
Layer 1
10
41.658437
20
252.204479
70
0
0
VERTEX
8
Layer 1
10
42.009836
20
252.204479
70
0
0
VERTEX
8
Layer 1
10
42.460453
20
250.712067
70
0
0
VERTEX
8
Layer 1
10
42.894534
20
252.204479
70
0
0
VERTEX
8
Layer 1
10
43.204592
20
252.204479
70
0
0
VERTEX
8
Layer 1
10
42.613415
20
250.352400
70
0
0
VERTEX
8
Layer 1
10
42.278553
20
250.352400
70
0
0
VERTEX
8
Layer 1
10
41.823801
20
251.861348
70
0
0
VERTEX
8
Layer 1
10
41.373183
20
250.352400
70
0
0
VERTEX
8
Layer 1
10
41.034187
20
250.352400
70
0
0
SEQEND
8
Layer 1
0
POLYLINE
8
Layer 1
62
7
70
0
10
0.000000
20
0.000000
66
1
0
VERTEX
8
Layer 1
10
44.764183
20
250.319327
70
0
0
VERTEX
8
Layer 1
10
44.470662
20
250.377204
70
0
0
VERTEX
8
Layer 1
10
44.259822
20
250.559105
70
0
0
VERTEX
8
Layer 1
10
44.181274
20
250.852626
70
0
0
VERTEX
8
Layer 1
10
44.334236
20
251.228830
70
0
0
VERTEX
8
Layer 1
10
44.776586
20
251.406597
70
0
0
VERTEX
8
Layer 1
10
45.446311
20
251.456206
70
0
0
VERTEX
8
Layer 1
10
45.446311
20
251.588497
70
0
0
VERTEX
8
Layer 1
10
45.326422
20
251.910957
70
0
0
VERTEX
8
Layer 1
10
45.028766
20
252.001908
70
0
0
VERTEX
8
Layer 1
10
44.702172
20
251.902689
70
0
0
VERTEX
8
Layer 1
10
44.574014
20
251.596765
70
0
0
VERTEX
8
Layer 1
10
44.263957
20
251.596765
70
0
0
VERTEX
8
Layer 1
10
44.363175
20
251.964701
70
0
0
VERTEX
8
Layer 1
10
44.631892
20
252.171406
70
0
0
VERTEX
8
Layer 1
10
45.028766
20
252.237552
70
0
0
VERTEX
8
Layer 1
10
45.297483
20
252.208613
70
0
0
VERTEX
8
Layer 1
10
45.533127
20
252.113529
70
0
0
VERTEX
8
Layer 1
10
45.698491
20
251.915092
70
0
0
VERTEX
8
Layer 1
10
45.760503
20
251.588497
70
0
0
VERTEX
8
Layer 1
10
45.760503
20
250.352400
70
0
0
VERTEX
8
Layer 1
10
45.462847
20
250.352400
70
0
0
VERTEX
8
Layer 1
10
45.450444
20
250.633519
70
0
0
VERTEX
8
Layer 1
10
45.152788
20
250.406143
70
0
0
VERTEX
8
Layer 1
10
44.764182
20
250.319327
70
0
0
VERTEX
8
Layer 1
10
44.764183
20
250.319327
70
0
0
SEQEND
8
Layer 1
0
POLYLINE
8
Layer 1
62
7
70
0
10
0.000000
20
0.000000
66
1
0
VERTEX
8
Layer 1
10
44.846865
20
250.563239
70
0
0
VERTEX
8
Layer 1
10
45.185862
20
250.650055
70
0
0
VERTEX
8
Layer 1
10
45.442177
20
250.877431
70
0
0
VERTEX
8
Layer 1
10
45.442177
20
251.253635
70
0
0
VERTEX
8
Layer 1
10
44.718708
20
251.158550
70
0
0
VERTEX
8
Layer 1
10
44.499601
20
250.865029
70
0
0
VERTEX
8
Layer 1
10
44.586417
20
250.645921
70
0
0
VERTEX
8
Layer 1
10
44.846865
20
250.563239
70
0
0
VERTEX
8
Layer 1
10
44.846865
20
250.563239
70
0
0
SEQEND
8
Layer 1
0
POLYLINE
8
Layer 1
62
7
70
0
10
0.000000
20
0.000000
66
1
0
VERTEX
8
Layer 1
10
46.317573
20
250.352400
70
0
0
VERTEX
8
Layer 1
10
46.317573
20
252.204479
70
0
0
VERTEX
8
Layer 1
10
46.615229
20
252.204479
70
0
0
VERTEX
8
Layer 1
10
46.627633
20
251.890287
70
0
0
VERTEX
8
Layer 1
10
46.842606
20
252.130065
70
0
0
VERTEX
8
Layer 1
10
47.206407
20
252.229284
70
0
0
VERTEX
8
Layer 1
10
47.243614
20
252.229284
70
0
0
VERTEX
8
Layer 1
10
47.243614
20
251.935762
70
0
0
VERTEX
8
Layer 1
10
47.198139
20
251.935762
70
0
0
VERTEX
8
Layer 1
10
46.954227
20
251.898555
70
0
0
VERTEX
8
Layer 1
10
46.772326
20
251.799337
70
0
0
VERTEX
8
Layer 1
10
46.635901
20
251.654643
70
0
0
VERTEX
8
Layer 1
10
46.635901
20
250.352400
70
0
0
VERTEX
8
Layer 1
10
46.317573
20
250.352400
70
0
0
SEQEND
8
Layer 1
0
POLYLINE
8
Layer 1
62
7
70
0
10
0.000000
20
0.000000
66
1
0
VERTEX
8
Layer 1
10
48.355687
20
250.319327
70
0
0
VERTEX
8
Layer 1
10
47.859595
20
250.443350
70
0
0
VERTEX
8
Layer 1
10
47.574341
20
250.786481
70
0
0
VERTEX
8
Layer 1
10
47.483391
20
251.278439
70
0
0
VERTEX
8
Layer 1
10
47.570208
20
251.778666
70
0
0
VERTEX
8
Layer 1
10
47.847193
20
252.113529
70
0
0
VERTEX
8
Layer 1
10
48.318480
20
252.237552
70
0
0
VERTEX
8
Layer 1
10
48.913792
20
252.006042
70
0
0
VERTEX
8
Layer 1
10
49.128765
20
251.352853
70
0
0
VERTEX
8
Layer 1
10
49.124631
20
251.282573
70
0
0
VERTEX
8
Layer 1
10
49.120496
20
251.228830
70
0
0
VERTEX
8
Layer 1
10
47.801716
20
251.228830
70
0
0
VERTEX
8
Layer 1
10
47.855460
20
250.893967
70
0
0
VERTEX
8
Layer 1
10
48.033226
20
250.654189
70
0
0
VERTEX
8
Layer 1
10
48.355686
20
250.563239
70
0
0
VERTEX
8
Layer 1
10
48.690549
20
250.662458
70
0
0
VERTEX
8
Layer 1
10
48.814573
20
250.951845
70
0
0
VERTEX
8
Layer 1
10
49.128765
20
250.951845
70
0
0
VERTEX
8
Layer 1
10
49.029547
20
250.612848
70
0
0
VERTEX
8
Layer 1
10
48.760830
20
250.393741
70
0
0
VERTEX
8
Layer 1
10
48.355687
20
250.319327
70
0
0
VERTEX
8
Layer 1
10
48.355687
20
250.319327
70
0
0
SEQEND
8
Layer 1
0
POLYLINE
8
Layer 1
62
7
70
0
10
0.000000
20
0.000000
66
1
0
VERTEX
8
Layer 1
10
47.801718
20
251.460340
70
0
0
VERTEX
8
Layer 1
10
48.814573
20
251.460340
70
0
0
VERTEX
8
Layer 1
10
48.678148
20
251.857214
70
0
0
VERTEX
8
Layer 1
10
48.318480
20
251.993640
70
0
0
VERTEX
8
Layer 1
10
47.954679
20
251.857214
70
0
0
VERTEX
8
Layer 1
10
47.801718
20
251.460340
70
0
0
VERTEX
8
Layer 1
10
47.801718
20
251.460340
70
0
0
SEQEND
8
Layer 1
0
POLYLINE
8
Layer 1
62
7
70
0
10
0.000000
20
0.000000
66
1
0
VERTEX
8
Layer 1
10
50.314220
20
249.670272
70
0
0
VERTEX
8
Layer 1
10
50.314220
20
249.934855
70
0
0
VERTEX
8
Layer 1
10
50.471316
20
249.934855
70
0
0
VERTEX
8
Layer 1
10
50.653216
20
249.992732
70
0
0
VERTEX
8
Layer 1
10
50.781374
20
250.187035
70
0
0
VERTEX
8
Layer 1
10
50.855788
20
250.352400
70
0
0
VERTEX
8
Layer 1
10
50.115783
20
252.204479
70
0
0
VERTEX
8
Layer 1
10
50.450646
20
252.204479
70
0
0
VERTEX
8
Layer 1
10
51.025286
20
250.687262
70
0
0
VERTEX
8
Layer 1
10
51.554452
20
252.204479
70
0
0
VERTEX
8
Layer 1
10
51.876912
20
252.204479
70
0
0
VERTEX
8
Layer 1
10
51.182382
20
250.352400
70
0
0
VERTEX
8
Layer 1
10
51.091432
20
250.129158
70
0
0
VERTEX
8
Layer 1
10
50.955006
20
249.864575
70
0
0
VERTEX
8
Layer 1
10
50.773106
20
249.715747
70
0
0
VERTEX
8
Layer 1
10
50.504389
20
249.670272
70
0
0
VERTEX
8
Layer 1
10
50.314220
20
249.670272
70
0
0
SEQEND
8
Layer 1
0
POLYLINE
8
Layer 1
62
7
70
0
10
0.000000
20
0.000000
66
1
0
VERTEX
8
Layer 1
10
52.919740
20
250.323461
70
0
0
VERTEX
8
Layer 1
10
52.452586
20
250.435082
70
0
0
VERTEX
8
Layer 1
10
52.154930
20
250.765810
70
0
0
VERTEX
8
Layer 1
10
52.055712
20
251.274305
70
0
0
VERTEX
8
Layer 1
10
52.154930
20
251.791068
70
0
0
VERTEX
8
Layer 1
10
52.452586
20
252.125931
70
0
0
VERTEX
8
Layer 1
10
52.919740
20
252.241686
70
0
0
VERTEX
8
Layer 1
10
53.391028
20
252.125931
70
0
0
VERTEX
8
Layer 1
10
53.692818
20
251.791068
70
0
0
VERTEX
8
Layer 1
10
53.800304
20
251.274305
70
0
0
VERTEX
8
Layer 1
10
53.692818
20
250.765810
70
0
0
VERTEX
8
Layer 1
10
53.391028
20
250.435082
70
0
0
VERTEX
8
Layer 1
10
52.919740
20
250.323461
70
0
0
VERTEX
8
Layer 1
10
52.919740
20
250.323461
70
0
0
SEQEND
8
Layer 1
0
POLYLINE
8
Layer 1
62
7
70
0
10
0.000000
20
0.000000
66
1
0
VERTEX
8
Layer 1
10
52.919740
20
250.575641
70
0
0
VERTEX
8
Layer 1
10
53.242200
20
250.666592
70
0
0
VERTEX
8
Layer 1
10
53.419967
20
250.914638
70
0
0
VERTEX
8
Layer 1
10
53.473710
20
251.274305
70
0
0
VERTEX
8
Layer 1
10
53.419967
20
251.642241
70
0
0
VERTEX
8
Layer 1
10
53.242200
20
251.894421
70
0
0
VERTEX
8
Layer 1
10
52.919740
20
251.989505
70
0
0
VERTEX
8
Layer 1
10
52.601414
20
251.894421
70
0
0
VERTEX
8
Layer 1
10
52.431916
20
251.642241
70
0
0
VERTEX
8
Layer 1
10
52.382306
20
251.274305
70
0
0
VERTEX
8
Layer 1
10
52.431916
20
250.914638
70
0
0
VERTEX
8
Layer 1
10
52.601414
20
250.666592
70
0
0
VERTEX
8
Layer 1
10
52.919740
20
250.575641
70
0
0
VERTEX
8
Layer 1
10
52.919740
20
250.575641
70
0
0
SEQEND
8
Layer 1
0
POLYLINE
8
Layer 1
62
7
70
0
10
0.000000
20
0.000000
66
1
0
VERTEX
8
Layer 1
10
54.895842
20
250.323461
70
0
0
VERTEX
8
Layer 1
10
54.428688
20
250.501227
70
0
0
VERTEX
8
Layer 1
10
54.288129
20
250.993186
70
0
0
VERTEX
8
Layer 1
10
54.288129
20
252.204479
70
0
0
VERTEX
8
Layer 1
10
54.610589
20
252.204479
70
0
0
VERTEX
8
Layer 1
10
54.610589
20
251.038661
70
0
0
VERTEX
8
Layer 1
10
54.639527
20
250.815419
70
0
0
VERTEX
8
Layer 1
10
54.747014
20
250.658323
70
0
0
VERTEX
8
Layer 1
10
54.978524
20
250.604580
70
0
0
VERTEX
8
Layer 1
10
55.325789
20
250.691396
70
0
0
VERTEX
8
Layer 1
10
55.553165
20
250.893967
70
0
0
VERTEX
8
Layer 1
10
55.553165
20
252.204479
70
0
0
VERTEX
8
Layer 1
10
55.871491
20
252.204479
70
0
0
VERTEX
8
Layer 1
10
55.871491
20
250.352400
70
0
0
VERTEX
8
Layer 1
10
55.565567
20
250.352400
70
0
0
VERTEX
8
Layer 1
10
55.557298
20
250.637653
70
0
0
VERTEX
8
Layer 1
10
55.305117
20
250.422679
70
0
0
VERTEX
8
Layer 1
10
54.895841
20
250.323461
70
0
0
VERTEX
8
Layer 1
10
54.895842
20
250.323461
70
0
0
SEQEND
8
Layer 1
0
POLYLINE
8
Layer 1
62
7
70
0
10
0.000000
20
0.000000
66
1
0
VERTEX
8
Layer 1
10
57.006449
20
251.142014
70
0
0
VERTEX
8
Layer 1
10
57.006449
20
251.166818
70
0
0
VERTEX
8
Layer 1
10
57.006449
20
251.195757
70
0
0
VERTEX
8
Layer 1
10
57.084997
20
251.538888
70
0
0
VERTEX
8
Layer 1
10
57.333043
20
251.807605
70
0
0
VERTEX
8
Layer 1
10
57.568687
20
252.030846
70
0
0
VERTEX
8
Layer 1
10
57.647235
20
252.287161
70
0
0
VERTEX
8
Layer 1
10
57.531480
20
252.564146
70
0
0
VERTEX
8
Layer 1
10
57.175947
20
252.675767
70
0
0
VERTEX
8
Layer 1
10
56.799744
20
252.551743
70
0
0
VERTEX
8
Layer 1
10
56.663318
20
252.200345
70
0
0
VERTEX
8
Layer 1
10
56.340858
20
252.200345
70
0
0
VERTEX
8
Layer 1
10
56.448345
20
252.601353
70
0
0
VERTEX
8
Layer 1
10
56.741866
20
252.853533
70
0
0
VERTEX
8
Layer 1
10
57.175947
20
252.940349
70
0
0
VERTEX
8
Layer 1
10
57.597626
20
252.857667
70
0
0
VERTEX
8
Layer 1
10
57.878745
20
252.634426
70
0
0
VERTEX
8
Layer 1
10
57.977964
20
252.287161
70
0
0
VERTEX
8
Layer 1
10
57.928354
20
252.018444
70
0
0
VERTEX
8
Layer 1
10
57.787795
20
251.815873
70
0
0
VERTEX
8
Layer 1
10
57.568687
20
251.629838
70
0
0
VERTEX
8
Layer 1
10
57.403323
20
251.468608
70
0
0
VERTEX
8
Layer 1
10
57.324775
20
251.319780
70
0
0
VERTEX
8
Layer 1
10
57.299970
20
251.142014
70
0
0
VERTEX
8
Layer 1
10
57.006449
20
251.142014
70
0
0
SEQEND
8
Layer 1
0
POLYLINE
8
Layer 1
62
7
70
0
10
0.000000
20
0.000000
66
1
0
VERTEX
8
Layer 1
10
57.159411
20
250.331729
70
0
0
VERTEX
8
Layer 1
10
56.985778
20
250.402009
70
0
0
VERTEX
8
Layer 1
10
56.919633
20
250.571507
70
0
0
VERTEX
8
Layer 1
10
56.985778
20
250.741006
70
0
0
VERTEX
8
Layer 1
10
57.159411
20
250.807151
70
0
0
VERTEX
8
Layer 1
10
57.328909
20
250.741006
70
0
0
VERTEX
8
Layer 1
10
57.399189
20
250.571507
70
0
0
VERTEX
8
Layer 1
10
57.328909
20
250.402009
70
0
0
VERTEX
8
Layer 1
10
57.159411
20
250.331729
70
0
0
VERTEX
8
Layer 1
10
57.159411
20
250.331729
70
0
0
SEQEND
8
Layer 1
0
POLYLINE
8
Layer 1
62
7
70
1
10
0.000000
20
0.000000
66
1
0
VERTEX
8
Layer 1
10
25.743164
20
242.435904
70
0
0
VERTEX
8
Layer 1
10
25.743164
20
244.994915
70
0
0
VERTEX
8
Layer 1
10
26.086295
20
244.994915
70
0
0
VERTEX
8
Layer 1
10
26.086295
20
242.435904
70
0
0
VERTEX
8
Layer 1
10
25.743164
20
242.435904
70
0
0
SEQEND
8
Layer 1
0
POLYLINE
8
Layer 1
62
7
70
1
10
0.000000
20
0.000000
66
1
0
VERTEX
8
Layer 1
10
28.008654
20
242.402831
70
0
0
VERTEX
8
Layer 1
10
27.715132
20
242.460708
70
0
0
VERTEX
8
Layer 1
10
27.504293
20
242.642609
70
0
0
VERTEX
8
Layer 1
10
27.425745
20
242.936130
70
0
0
VERTEX
8
Layer 1
10
27.578707
20
243.312334
70
0
0
VERTEX
8
Layer 1
10
28.021056
20
243.490100
70
0
0
VERTEX
8
Layer 1
10
28.690781
20
243.539710
70
0
0
VERTEX
8
Layer 1
10
28.690781
20
243.672001
70
0
0
VERTEX
8
Layer 1
10
28.570892
20
243.994461
70
0
0
VERTEX
8
Layer 1
10
28.273237
20
244.085412
70
0
0
VERTEX
8
Layer 1
10
27.946642
20
243.986193
70
0
0
VERTEX
8
Layer 1
10
27.818485
20
243.680269
70
0
0
VERTEX
8
Layer 1
10
27.508427
20
243.680269
70
0
0
VERTEX
8
Layer 1
10
27.607646
20
244.048205
70
0
0
VERTEX
8
Layer 1
10
27.876363
20
244.254910
70
0
0
VERTEX
8
Layer 1
10
28.273237
20
244.321056
70
0
0
VERTEX
8
Layer 1
10
28.541954
20
244.292117
70
0
0
VERTEX
8
Layer 1
10
28.777598
20
244.197033
70
0
0
VERTEX
8
Layer 1
10
28.942962
20
243.998596
70
0
0
VERTEX
8
Layer 1
10
29.004973
20
243.672001
70
0
0
VERTEX
8
Layer 1
10
29.004973
20
242.435904
70
0
0
VERTEX
8
Layer 1
10
28.707318
20
242.435904
70
0
0
VERTEX
8
Layer 1
10
28.694915
20
242.717023
70
0
0
VERTEX
8
Layer 1
10
28.397260
20
242.489647
70
0
0
VERTEX
8
Layer 1
10
28.008654
20
242.402831
70
0
0
VERTEX
8
Layer 1
10
28.008654
20
242.402831
70
0
0
SEQEND
8
Layer 1
0
POLYLINE
8
Layer 1
62
7
70
0
10
0.000000
20
0.000000
66
1
0
VERTEX
8
Layer 1
10
28.091336
20
242.646743
70
0
0
VERTEX
8
Layer 1
10
28.430333
20
242.733559
70
0
0
VERTEX
8
Layer 1
10
28.686647
20
242.960935
70
0
0
VERTEX
8
Layer 1
10
28.686647
20
243.337139
70
0
0
VERTEX
8
Layer 1
10
27.963179
20
243.242054
70
0
0
VERTEX
8
Layer 1
10
27.744071
20
242.948533
70
0
0
VERTEX
8
Layer 1
10
27.830887
20
242.729425
70
0
0
VERTEX
8
Layer 1
10
28.091336
20
242.646743
70
0
0
VERTEX
8
Layer 1
10
28.091336
20
242.646743
70
0
0
SEQEND
8
Layer 1
0
POLYLINE
8
Layer 1
62
7
70
1
10
0.000000
20
0.000000
66
1
0
VERTEX
8
Layer 1
10
29.562044
20
242.435904
70
0
0
VERTEX
8
Layer 1
10
29.562044
20
244.287983
70
0
0
VERTEX
8
Layer 1
10
29.867968
20
244.287983
70
0
0
VERTEX
8
Layer 1
10
29.876237
20
244.002730
70
0
0
VERTEX
8
Layer 1
10
30.116015
20
244.213569
70
0
0
VERTEX
8
Layer 1
10
30.512889
20
244.312787
70
0
0
VERTEX
8
Layer 1
10
30.951104
20
244.130887
70
0
0
VERTEX
8
Layer 1
10
31.087530
20
243.630660
70
0
0
VERTEX
8
Layer 1
10
31.087530
20
242.435904
70
0
0
VERTEX
8
Layer 1
10
30.769203
20
242.435904
70
0
0
VERTEX
8
Layer 1
10
30.769203
20
243.585185
70
0
0
VERTEX
8
Layer 1
10
30.740265
20
243.820829
70
0
0
VERTEX
8
Layer 1
10
30.641046
20
243.986193
70
0
0
VERTEX
8
Layer 1
10
30.426073
20
244.048205
70
0
0
VERTEX
8
Layer 1
10
30.095344
20
243.953120
70
0
0
VERTEX
8
Layer 1
10
29.880371
20
243.746415
70
0
0
VERTEX
8
Layer 1
10
29.880371
20
242.435904
70
0
0
VERTEX
8
Layer 1
10
29.562044
20
242.435904
70
0
0
SEQEND
8
Layer 1
0
POLYLINE
8
Layer 1
62
7
70
1
10
0.000000
20
0.000000
66
1
0
VERTEX
8
Layer 1
10
31.972228
20
242.435904
70
0
0
VERTEX
8
Layer 1
10
31.972228
20
243.585185
70
0
0
VERTEX
8
Layer 1
10
31.943289
20
243.820829
70
0
0
VERTEX
8
Layer 1
10
31.844071
20
243.986193
70
0
0
VERTEX
8
Layer 1
10
31.633231
20
244.048205
70
0
0
VERTEX
8
Layer 1
10
31.298369
20
243.953120
70
0
0
VERTEX
8
Layer 1
10
31.079261
20
243.750549
70
0
0
VERTEX
8
Layer 1
10
31.029652
20
243.982059
70
0
0
VERTEX
8
Layer 1
10
31.306637
20
244.209435
70
0
0
VERTEX
8
Layer 1
10
31.711779
20
244.312787
70
0
0
VERTEX
8
Layer 1
10
32.154129
20
244.130887
70
0
0
VERTEX
8
Layer 1
10
32.290554
20
243.630660
70
0
0
VERTEX
8
Layer 1
10
32.290554
20
242.435904
70
0
0
VERTEX
8
Layer 1
10
31.972228
20
242.435904
70
0
0
SEQEND
8
Layer 1
0
POLYLINE
8
Layer 1
62
7
70
1
10
0.000000
20
0.000000
66
1
0
VERTEX
8
Layer 1
10
33.772630
20
242.435904
70
0
0
VERTEX
8
Layer 1
10
33.772630
20
244.031668
70
0
0
VERTEX
8
Layer 1
10
33.462572
20
244.031668
70
0
0
VERTEX
8
Layer 1
10
33.462572
20
244.287983
70
0
0
VERTEX
8
Layer 1
10
33.772630
20
244.287983
70
0
0
VERTEX
8
Layer 1
10
33.772630
20
244.395470
70
0
0
VERTEX
8
Layer 1
10
33.793300
20
244.647650
70
0
0
VERTEX
8
Layer 1
10
33.875982
20
244.833685
70
0
0
VERTEX
8
Layer 1
10
34.045480
20
244.953574
70
0
0
VERTEX
8
Layer 1
10
34.326599
20
244.994915
70
0
0
VERTEX
8
Layer 1
10
34.516768
20
244.994915
70
0
0
VERTEX
8
Layer 1
10
34.516768
20
244.746868
70
0
0
VERTEX
8
Layer 1
10
34.347270
20
244.746868
70
0
0
VERTEX
8
Layer 1
10
34.132296
20
244.655918
70
0
0
VERTEX
8
Layer 1
10
34.086821
20
244.391335
70
0
0
VERTEX
8
Layer 1
10
34.086821
20
244.287983
70
0
0
VERTEX
8
Layer 1
10
34.516768
20
244.287983
70
0
0
VERTEX
8
Layer 1
10
34.516768
20
244.031668
70
0
0
VERTEX
8
Layer 1
10
34.086821
20
244.031668
70
0
0
VERTEX
8
Layer 1
10
34.086821
20
242.435904
70
0
0
VERTEX
8
Layer 1
10
33.772630
20
242.435904
70
0
0
SEQEND
8
Layer 1
0
POLYLINE
8
Layer 1
62
7
70
1
10
0.000000
20
0.000000
66
1
0
VERTEX
8
Layer 1
10
34.886772
20
242.435904
70
0
0
VERTEX
8
Layer 1
10
34.886772
20
244.287983
70
0
0
VERTEX
8
Layer 1
10
35.205098
20
244.287983
70
0
0
VERTEX
8
Layer 1
10
35.205098
20
242.435904
70
0
0
VERTEX
8
Layer 1
10
34.886772
20
242.435904
70
0
0
SEQEND
8
Layer 1
0
POLYLINE
8
Layer 1
62
7
70
0
10
0.000000
20
0.000000
66
1
0
VERTEX
8
Layer 1
10
35.043868
20
244.635248
70
0
0
VERTEX
8
Layer 1
10
34.899174
20
244.684857
70
0
0
VERTEX
8
Layer 1
10
34.845431
20
244.821282
70
0
0
VERTEX
8
Layer 1
10
34.899174
20
244.949440
70
0
0
VERTEX
8
Layer 1
10
35.043868
20
245.003183
70
0
0
VERTEX
8
Layer 1
10
35.188561
20
244.949440
70
0
0
VERTEX
8
Layer 1
10
35.246439
20
244.821282
70
0
0
VERTEX
8
Layer 1
10
35.188561
20
244.684857
70
0
0
VERTEX
8
Layer 1
10
35.043868
20
244.635248
70
0
0
VERTEX
8
Layer 1
10
35.043868
20
244.635248
70
0
0
SEQEND
8
Layer 1
0
POLYLINE
8
Layer 1
62
7
70
1
10
0.000000
20
0.000000
66
1
0
VERTEX
8
Layer 1
10
35.774571
20
242.435904
70
0
0
VERTEX
8
Layer 1
10
35.774571
20
244.287983
70
0
0
VERTEX
8
Layer 1
10
36.080495
20
244.287983
70
0
0
VERTEX
8
Layer 1
10
36.088764
20
244.002730
70
0
0
VERTEX
8
Layer 1
10
36.332676
20
244.213569
70
0
0
VERTEX
8
Layer 1
10
36.746087
20
244.312787
70
0
0
VERTEX
8
Layer 1
10
37.184302
20
244.135021
70
0
0
VERTEX
8
Layer 1
10
37.324862
20
243.630660
70
0
0
VERTEX
8
Layer 1
10
37.324862
20
242.435904
70
0
0
VERTEX
8
Layer 1
10
37.010668
20
242.435904
70
0
0
VERTEX
8
Layer 1
10
37.010668
20
243.585185
70
0
0
VERTEX
8
Layer 1
10
36.981730
20
243.820829
70
0
0
VERTEX
8
Layer 1
10
36.878377
20
243.986193
70
0
0
VERTEX
8
Layer 1
10
36.667538
20
244.048205
70
0
0
VERTEX
8
Layer 1
10
36.320273
20
243.953120
70
0
0
VERTEX
8
Layer 1
10
36.092898
20
243.746415
70
0
0
VERTEX
8
Layer 1
10
36.092898
20
242.435904
70
0
0
VERTEX
8
Layer 1
10
35.774571
20
242.435904
70
0
0
SEQEND
8
Layer 1
0
POLYLINE
8
Layer 1
62
7
70
0
10
0.000000
20
0.000000
66
1
0
VERTEX
8
Layer 1
10
38.697383
20
242.402831
70
0
0
VERTEX
8
Layer 1
10
38.201291
20
242.526854
70
0
0
VERTEX
8
Layer 1
10
37.916038
20
242.869985
70
0
0
VERTEX
8
Layer 1
10
37.825087
20
243.361943
70
0
0
VERTEX
8
Layer 1
10
37.911904
20
243.862170
70
0
0
VERTEX
8
Layer 1
10
38.188889
20
244.197032
70
0
0
VERTEX
8
Layer 1
10
38.660177
20
244.321056
70
0
0
VERTEX
8
Layer 1
10
39.255488
20
244.089546
70
0
0
VERTEX
8
Layer 1
10
39.470461
20
243.436357
70
0
0
VERTEX
8
Layer 1
10
39.466327
20
243.366077
70
0
0
VERTEX
8
Layer 1
10
39.462192
20
243.312334
70
0
0
VERTEX
8
Layer 1
10
38.143413
20
243.312334
70
0
0
VERTEX
8
Layer 1
10
38.197156
20
242.977471
70
0
0
VERTEX
8
Layer 1
10
38.374923
20
242.737693
70
0
0
VERTEX
8
Layer 1
10
38.697383
20
242.646743
70
0
0
VERTEX
8
Layer 1
10
39.032245
20
242.745961
70
0
0
VERTEX
8
Layer 1
10
39.156269
20
243.035349
70
0
0
VERTEX
8
Layer 1
10
39.470461
20
243.035349
70
0
0
VERTEX
8
Layer 1
10
39.371242
20
242.696352
70
0
0
VERTEX
8
Layer 1
10
39.102525
20
242.477245
70
0
0
VERTEX
8
Layer 1
10
38.697383
20
242.402831
70
0
0
VERTEX
8
Layer 1
10
38.697383
20
242.402831
70
0
0
SEQEND
8
Layer 1
0
POLYLINE
8
Layer 1
62
7
70
0
10
0.000000
20
0.000000
66
1
0
VERTEX
8
Layer 1
10
38.143414
20
243.543844
70
0
0
VERTEX
8
Layer 1
10
39.156269
20
243.543844
70
0
0
VERTEX
8
Layer 1
10
39.019844
20
243.940718
70
0
0
VERTEX
8
Layer 1
10
38.660177
20
244.077143
70
0
0
VERTEX
8
Layer 1
10
38.296375
20
243.940718
70
0
0
VERTEX
8
Layer 1
10
38.143414
20
243.543844
70
0
0
VERTEX
8
Layer 1
10
38.143414
20
243.543844
70
0
0
SEQEND
8
Layer 1
0
POLYLINE
8
Layer 1
62
7
70
0
10
0.000000
20
0.000000
66
1
0
VERTEX
8
Layer 1
10
39.892140
20
241.906738
70
0
0
VERTEX
8
Layer 1
10
39.813592
20
242.084505
70
0
0
VERTEX
8
Layer 1
10
40.007895
20
242.225064
70
0
0
VERTEX
8
Layer 1
10
40.107114
20
242.435904
70
0
0
VERTEX
8
Layer 1
10
40.127783
20
242.415233
70
0
0
VERTEX
8
Layer 1
10
39.950016
20
242.485513
70
0
0
VERTEX
8
Layer 1
10
39.879736
20
242.655011
70
0
0
VERTEX
8
Layer 1
10
39.950016
20
242.828644
70
0
0
VERTEX
8
Layer 1
10
40.127783
20
242.894789
70
0
0
VERTEX
8
Layer 1
10
40.301415
20
242.820375
70
0
0
VERTEX
8
Layer 1
10
40.371695
20
242.593000
70
0
0
VERTEX
8
Layer 1
10
40.305549
20
242.282942
70
0
0
VERTEX
8
Layer 1
10
40.136051
20
242.059700
70
0
0
VERTEX
8
Layer 1
10
39.892139
20
241.906738
70
0
0
VERTEX
8
Layer 1
10
39.892140
20
241.906738
70
0
0
SEQEND
8
Layer 1
0
POLYLINE
8
Layer 1
62
7
70
0
10
0.000000
20
0.000000
66
1
0
VERTEX
8
Layer 1
10
41.629498
20
241.753776
70
0
0
VERTEX
8
Layer 1
10
41.629498
20
242.018359
70
0
0
VERTEX
8
Layer 1
10
41.786594
20
242.018359
70
0
0
VERTEX
8
Layer 1
10
41.968494
20
242.076236
70
0
0
VERTEX
8
Layer 1
10
42.096652
20
242.270539
70
0
0
VERTEX
8
Layer 1
10
42.171066
20
242.435904
70
0
0
VERTEX
8
Layer 1
10
41.431061
20
244.287983
70
0
0
VERTEX
8
Layer 1
10
41.765924
20
244.287983
70
0
0
VERTEX
8
Layer 1
10
42.340564
20
242.770766
70
0
0
VERTEX
8
Layer 1
10
42.869730
20
244.287983
70
0
0
VERTEX
8
Layer 1
10
43.192190
20
244.287983
70
0
0
VERTEX
8
Layer 1
10
42.497660
20
242.435904
70
0
0
VERTEX
8
Layer 1
10
42.406710
20
242.212662
70
0
0
VERTEX
8
Layer 1
10
42.270284
20
241.948079
70
0
0
VERTEX
8
Layer 1
10
42.088384
20
241.799251
70
0
0
VERTEX
8
Layer 1
10
41.819667
20
241.753776
70
0
0
VERTEX
8
Layer 1
10
41.629498
20
241.753776
70
0
0
SEQEND
8
Layer 1
0
POLYLINE
8
Layer 1
62
7
70
0
10
0.000000
20
0.000000
66
1
0
VERTEX
8
Layer 1
10
44.235018
20
242.406965
70
0
0
VERTEX
8
Layer 1
10
43.767864
20
242.518586
70
0
0
VERTEX
8
Layer 1
10
43.470208
20
242.849314
70
0
0
VERTEX
8
Layer 1
10
43.370990
20
243.357809
70
0
0
VERTEX
8
Layer 1
10
43.470208
20
243.874572
70
0
0
VERTEX
8
Layer 1
10
43.767864
20
244.209435
70
0
0
VERTEX
8
Layer 1
10
44.235018
20
244.325190
70
0
0
VERTEX
8
Layer 1
10
44.706306
20
244.209435
70
0
0
VERTEX
8
Layer 1
10
45.008096
20
243.874572
70
0
0
VERTEX
8
Layer 1
10
45.115582
20
243.357809
70
0
0
VERTEX
8
Layer 1
10
45.008096
20
242.849314
70
0
0
VERTEX
8
Layer 1
10
44.706306
20
242.518586
70
0
0
VERTEX
8
Layer 1
10
44.235018
20
242.406965
70
0
0
VERTEX
8
Layer 1
10
44.235018
20
242.406965
70
0
0
SEQEND
8
Layer 1
0
POLYLINE
8
Layer 1
62
7
70
0
10
0.000000
20
0.000000
66
1
0
VERTEX
8
Layer 1
10
44.235018
20
242.659145
70
0
0
VERTEX
8
Layer 1
10
44.557478
20
242.750096
70
0
0
VERTEX
8
Layer 1
10
44.735245
20
242.998142
70
0
0
VERTEX
8
Layer 1
10
44.788988
20
243.357809
70
0
0
VERTEX
8
Layer 1
10
44.735245
20
243.725744
70
0
0
VERTEX
8
Layer 1
10
44.557478
20
243.977925
70
0
0
VERTEX
8
Layer 1
10
44.235018
20
244.073009
70
0
0
VERTEX
8
Layer 1
10
43.916692
20
243.977925
70
0
0
VERTEX
8
Layer 1
10
43.747193
20
243.725744
70
0
0
VERTEX
8
Layer 1
10
43.697584
20
243.357809
70
0
0
VERTEX
8
Layer 1
10
43.747193
20
242.998142
70
0
0
VERTEX
8
Layer 1
10
43.916692
20
242.750096
70
0
0
VERTEX
8
Layer 1
10
44.235018
20
242.659145
70
0
0
VERTEX
8
Layer 1
10
44.235018
20
242.659145
70
0
0
SEQEND
8
Layer 1
0
POLYLINE
8
Layer 1
62
7
70
0
10
0.000000
20
0.000000
66
1
0
VERTEX
8
Layer 1
10
46.211120
20
242.406965
70
0
0
VERTEX
8
Layer 1
10
45.743966
20
242.584731
70
0
0
VERTEX
8
Layer 1
10
45.603407
20
243.076690
70
0
0
VERTEX
8
Layer 1
10
45.603407
20
244.287983
70
0
0
VERTEX
8
Layer 1
10
45.925867
20
244.287983
70
0
0
VERTEX
8
Layer 1
10
45.925867
20
243.122165
70
0
0
VERTEX
8
Layer 1
10
45.954805
20
242.898923
70
0
0
VERTEX
8
Layer 1
10
46.062292
20
242.741827
70
0
0
VERTEX
8
Layer 1
10
46.293802
20
242.688084
70
0
0
VERTEX
8
Layer 1
10
46.641067
20
242.774900
70
0
0
VERTEX
8
Layer 1
10
46.868443
20
242.977471
70
0
0
VERTEX
8
Layer 1
10
46.868443
20
244.287983
70
0
0
VERTEX
8
Layer 1
10
47.186769
20
244.287983
70
0
0
VERTEX
8
Layer 1
10
47.186769
20
242.435904
70
0
0
VERTEX
8
Layer 1
10
46.880845
20
242.435904
70
0
0
VERTEX
8
Layer 1
10
46.872577
20
242.721157
70
0
0
VERTEX
8
Layer 1
10
46.620397
20
242.506183
70
0
0
VERTEX
8
Layer 1
10
46.211120
20
242.406965
70
0
0
VERTEX
8
Layer 1
10
46.211120
20
242.406965
70
0
0
SEQEND
8
Layer 1
0
POLYLINE
8
Layer 1
62
7
70
0
10
0.000000
20
0.000000
66
1
0
VERTEX
8
Layer 1
10
48.317447
20
243.225518
70
0
0
VERTEX
8
Layer 1
10
48.317447
20
243.250322
70
0
0
VERTEX
8
Layer 1
10
48.317447
20
243.279261
70
0
0
VERTEX
8
Layer 1
10
48.395995
20
243.622392
70
0
0
VERTEX
8
Layer 1
10
48.644041
20
243.891108
70
0
0
VERTEX
8
Layer 1
10
48.879685
20
244.114350
70
0
0
VERTEX
8
Layer 1
10
48.958233
20
244.370665
70
0
0
VERTEX
8
Layer 1
10
48.842478
20
244.647650
70
0
0
VERTEX
8
Layer 1
10
48.486945
20
244.759271
70
0
0
VERTEX
8
Layer 1
10
48.110742
20
244.635247
70
0
0
VERTEX
8
Layer 1
10
47.974316
20
244.283848
70
0
0
VERTEX
8
Layer 1
10
47.651856
20
244.283848
70
0
0
VERTEX
8
Layer 1
10
47.759343
20
244.684857
70
0
0
VERTEX
8
Layer 1
10
48.052864
20
244.937037
70
0
0
VERTEX
8
Layer 1
10
48.486945
20
245.023853
70
0
0
VERTEX
8
Layer 1
10
48.908624
20
244.941171
70
0
0
VERTEX
8
Layer 1
10
49.189743
20
244.717929
70
0
0
VERTEX
8
Layer 1
10
49.288962
20
244.370665
70
0
0
VERTEX
8
Layer 1
10
49.239353
20
244.101948
70
0
0
VERTEX
8
Layer 1
10
49.098793
20
243.899377
70
0
0
VERTEX
8
Layer 1
10
48.879685
20
243.713342
70
0
0
VERTEX
8
Layer 1
10
48.714321
20
243.552112
70
0
0
VERTEX
8
Layer 1
10
48.635773
20
243.403284
70
0
0
VERTEX
8
Layer 1
10
48.610969
20
243.225517
70
0
0
VERTEX
8
Layer 1
10
48.317447
20
243.225518
70
0
0
SEQEND
8
Layer 1
0
POLYLINE
8
Layer 1
62
7
70
0
10
0.000000
20
0.000000
66
1
0
VERTEX
8
Layer 1
10
48.470409
20
242.415233
70
0
0
VERTEX
8
Layer 1
10
48.296777
20
242.485513
70
0
0
VERTEX
8
Layer 1
10
48.230631
20
242.655011
70
0
0
VERTEX
8
Layer 1
10
48.296777
20
242.824509
70
0
0
VERTEX
8
Layer 1
10
48.470409
20
242.890655
70
0
0
VERTEX
8
Layer 1
10
48.639907
20
242.824509
70
0
0
VERTEX
8
Layer 1
10
48.710187
20
242.655011
70
0
0
VERTEX
8
Layer 1
10
48.639907
20
242.485513
70
0
0
VERTEX
8
Layer 1
10
48.470409
20
242.415233
70
0
0
VERTEX
8
Layer 1
10
48.470409
20
242.415233
70
0
0
SEQEND
8
Layer 1
 0 
ENDSEC
 0 
EOF